<?xml version="1.0" encoding="UTF-8"?>
<svg version="1.1" xmlns="http://www.w3.org/2000/svg" width="1181" height="1181">
<path d="M0 0 C2.64 0 5.28 0 8 0 C8 0.33 8 0.66 8 1 C9.65 1 11.3 1 13 1 C13 0.67 13 0.34 13 0 C15.875 -0.125 15.875 -0.125 19 0 C19.99 0.99 19.99 0.99 21 2 C22.85483454 2.60713803 24.73421385 3.14131052 26.625 3.625 C27.62789063 3.88539063 28.63078125 4.14578125 29.6640625 4.4140625 C30.82035156 4.70410156 30.82035156 4.70410156 32 5 C32 5.66 32 6.32 32 7 C32.70511719 7.11214844 33.41023438 7.22429687 34.13671875 7.33984375 C37.27389512 8.06314908 39.90127906 9.19457691 42.8125 10.5625 C43.78832031 11.01753906 44.76414062 11.47257812 45.76953125 11.94140625 C46.50558594 12.29074219 47.24164063 12.64007813 48 13 C48 13.66 48 14.32 48 15 C48.60328125 15.19335938 49.2065625 15.38671875 49.828125 15.5859375 C50.62734375 15.84632813 51.4265625 16.10671875 52.25 16.375 C53.43335938 16.75785156 53.43335938 16.75785156 54.640625 17.1484375 C56.86627958 17.95173667 58.90931672 18.89711662 61 20 C61 20.66 61 21.32 61 22 C61.56847656 22.18175781 62.13695312 22.36351562 62.72265625 22.55078125 C75.8768234 26.83302264 75.8768234 26.83302264 78.40234375 29.45703125 C80.33951859 31.32789693 82.21204736 32.14709237 84.6875 33.1875 C85.49574219 33.53167969 86.30398438 33.87585938 87.13671875 34.23046875 C87.75160156 34.48441406 88.36648438 34.73835938 89 35 C89 35.66 89 36.32 89 37 C89.71542969 37.11214844 90.43085938 37.22429687 91.16796875 37.33984375 C94.19115998 38.04456005 96.56322688 39.13287798 99.3125 40.5625 C100.19550781 41.01753906 101.07851563 41.47257812 101.98828125 41.94140625 C102.65214844 42.29074219 103.31601562 42.64007813 104 43 C104 43.66 104 44.32 104 45 C104.66 45.0825 105.32 45.165 106 45.25 C109.99039163 46.24759791 113.38549643 48.07166683 117 50 C117 50.66 117 51.32 117 52 C117.58007812 52.18175781 118.16015625 52.36351562 118.7578125 52.55078125 C123.39147293 54.0418106 127.69762355 55.68333576 132 58 C132 58.66 132 59.32 132 60 C132.556875 60.15855469 133.11375 60.31710937 133.6875 60.48046875 C138.77355943 62.03549706 142.90834082 63.96692909 147.2734375 67.01171875 C149.10237331 68.24838659 149.10237331 68.24838659 152 68 C152 68.66 152 69.32 152 70 C153.22589844 70.36738281 153.22589844 70.36738281 154.4765625 70.7421875 C158.63161324 72.22547612 162.45321289 74.11800949 166.375 76.125 C167.11105469 76.49753906 167.84710938 76.87007813 168.60546875 77.25390625 C170.40550358 78.1656122 172.20301402 79.08229932 174 80 C174 80.66 174 81.32 174 82 C175.2375 82.350625 176.475 82.70125 177.75 83.0625 C182.9874542 84.79457147 187.457106 87.46900664 192.1640625 90.30859375 C194.99659262 91.99796777 197.85962097 93.47779774 200.82421875 94.9140625 C203.67001613 96.33440661 206.45531327 97.856653 209.25 99.375 C219.83862634 105.32190838 219.83862634 105.32190838 231 110 C231.33 110.66 231.66 111.32 232 112 C232.598125 112.144375 233.19625 112.28875 233.8125 112.4375 C236.55646885 113.14309199 237.94606031 114.04073997 240 116 C240.49777794 118.47190189 240.49777794 118.47190189 240.49447632 121.47242737 C240.5028653 122.60957184 240.51125427 123.74671631 240.51989746 124.9183197 C240.50865845 126.16674149 240.49741943 127.41516327 240.48583984 128.70141602 C240.48963654 130.01537354 240.49343323 131.32933105 240.49734497 132.68310547 C240.50704603 136.2885038 240.49172681 139.89340763 240.47143888 143.49874616 C240.45388643 147.26811499 240.45739259 151.03746814 240.4581604 154.80686951 C240.45628687 161.13622323 240.43891484 167.46538527 240.41162109 173.79467773 C240.3801561 181.11845362 240.36962533 188.44201963 240.3710922 195.76585823 C240.37231174 202.80476525 240.36211112 209.84360372 240.34550858 216.88249016 C240.33843696 219.88126091 240.33478124 222.8800074 240.33372116 225.87878609 C240.3313441 230.06195162 240.31194084 234.24486718 240.29052734 238.42797852 C240.29143372 239.67842453 240.29234009 240.92887054 240.29327393 242.21720886 C240.28474396 243.35153351 240.27621399 244.48585815 240.26742554 245.65455627 C240.262398 247.13925085 240.262398 247.13925085 240.25726891 248.65393925 C240 251 240 251 238 253 C236.6873734 253.70656467 235.34799868 254.36350821 234 255 C231.64504693 256.16511097 229.29093604 257.33183549 226.9375 258.5 C226.31294922 258.80808594 225.68839844 259.11617187 225.04492188 259.43359375 C219.905126 261.86141511 219.905126 261.86141511 215.6875 265.5625 C213.29266988 267.60254047 211.07933878 267.62293811 208 268 C206.66262906 268.31674575 205.32711192 268.64270064 204 269 C204 269.66 204 270.32 204 271 C202.21046815 271.83790789 200.41830305 272.67019396 198.625 273.5 C197.62726563 273.9640625 196.62953125 274.428125 195.6015625 274.90625 C193 276 193 276 191 276 C191 276.66 191 277.32 191 278 C185.25 281 185.25 281 183 281 C182.67 281.66 182.34 282.32 182 283 C178.9375 283.625 178.9375 283.625 176 284 C175.67 284.99 175.34 285.98 175 287 C172.78515625 288.16796875 172.78515625 288.16796875 170.0625 289.1875 C169.16660156 289.53167969 168.27070313 289.87585938 167.34765625 290.23046875 C165 291 165 291 163 291 C163 291.66 163 292.32 163 293 C160.87717331 294.00460531 158.75166979 295.00355602 156.625 296 C155.44164062 296.556875 154.25828125 297.11375 153.0390625 297.6875 C150 299 150 299 148 299 C148 299.66 148 300.32 148 301 C145.55049452 304.40209095 142.95122816 304.34146197 139 305 C138.54496094 305.46277344 138.08992187 305.92554688 137.62109375 306.40234375 C135.60098361 308.39324748 133.71231165 309.07828424 131.0625 310.0625 C128.58680491 310.99228594 126.21190442 311.88840996 123.87109375 313.12109375 C122 314 122 314 119 314 C119 314.66 119 315.32 119 316 C118.37351562 316.33773438 117.74703125 316.67546875 117.1015625 317.0234375 C116.28429687 317.46945312 115.46703125 317.91546875 114.625 318.375 C113.40683594 319.03628906 113.40683594 319.03628906 112.1640625 319.7109375 C109.89185698 320.9443893 109.89185698 320.9443893 108 323 C106 323.66666667 104 324.33333333 102 325 C101.34 325.66 100.68 326.32 100 327 C97.375 327.625 97.375 327.625 95 328 C95 328.66 95 329.32 95 330 C94.28199219 330.28617188 93.56398438 330.57234375 92.82421875 330.8671875 C91.01140124 331.59432039 89.20123827 332.32812701 87.39453125 333.0703125 C86.54246094 333.41835938 85.69039062 333.76640625 84.8125 334.125 C83.52279297 334.65480469 83.52279297 334.65480469 82.20703125 335.1953125 C80 336 80 336 78 336 C78 336.66 78 337.32 78 338 C73.0778687 340.63365987 68.42096702 342.64475824 63 344 C63 344.66 63 345.32 63 346 C61.21046815 346.83790789 59.41830305 347.67019396 57.625 348.5 C56.62726563 348.9640625 55.62953125 349.428125 54.6015625 349.90625 C52 351 52 351 50 351 C50 351.66 50 352.32 50 353 C41.16873 357.56522364 32.48636824 361.93037079 23 365 C22.01 365.33 21.02 365.66 20 366 C16.17051591 366.23137114 12.33574434 366.18516398 8.5 366.1875 C7.44167969 366.19974609 6.38335937 366.21199219 5.29296875 366.22460938 C4.27847656 366.22654297 3.26398438 366.22847656 2.21875 366.23046875 C1.28998047 366.23457764 0.36121094 366.23868652 -0.59570312 366.24291992 C-3 366 -3 366 -6 364 C-7.25620403 363.46430532 -8.52876966 362.9658903 -9.8125 362.5 C-10.51246094 362.2421875 -11.21242187 361.984375 -11.93359375 361.71875 C-13.73015266 361.09385994 -15.55123808 360.5403739 -17.375 360 C-20 359 -20 359 -22 356 C-22.763125 355.54625 -23.52625 355.0925 -24.3125 354.625 C-29.55299125 351.45633087 -33.147979 346.66297279 -37 342 C-37.49242187 341.5875 -37.98484375 341.175 -38.4921875 340.75 C-40.71834087 338.16627796 -41.43717902 335.34752772 -42.5 332.125 C-44.00809361 327.27570705 -44.00809361 327.27570705 -46.55780029 322.96132469 C-48.75713399 318.44534736 -48.40067453 314.13209684 -48.35644531 309.17349243 C-48.35945664 307.51687011 -48.35945664 307.51687011 -48.3625288 305.82678068 C-48.36547198 302.11824825 -48.34677978 298.41014228 -48.328125 294.70166016 C-48.32560217 292.0454839 -48.32424173 289.38932943 -48.32423401 286.7331543 C-48.32129486 280.26034309 -48.30174212 273.78768427 -48.27585572 267.31492801 C-48.25494361 262.04868667 -48.23921156 256.78245461 -48.22714233 251.51618576 C-48.22362403 249.99834009 -48.22010465 248.48049442 -48.21658421 246.96264875 C-48.21483256 246.20709134 -48.2130809 245.45153393 -48.21127617 244.67308085 C-48.17730407 230.37909573 -48.12331417 216.08523645 -48.06350148 201.79133968 C-48.00954367 188.73940743 -47.98178278 175.6875731 -47.9663651 162.63554342 C-47.95025528 149.21858922 -47.91562726 135.80179572 -47.86148643 122.38493955 C-47.8314578 114.85873611 -47.80870511 107.33268273 -47.80554199 99.80641556 C-47.80266395 93.39304268 -47.78225114 86.98000964 -47.73987669 80.56677146 C-47.71876562 77.29998353 -47.70801623 74.03376879 -47.71377754 70.76690292 C-47.76190822 35.96567353 -47.76190822 35.96567353 -36.3125 24.25 C-35.1678125 23.13625 -35.1678125 23.13625 -34 22 C-34 21.34 -34 20.68 -34 20 C-33.195625 19.7525 -32.39125 19.505 -31.5625 19.25 C-30.716875 18.8375 -29.87125 18.425 -29 18 C-28.90332031 17.3915625 -28.80664062 16.783125 -28.70703125 16.15625 C-27.59401743 12.76186532 -25.16358487 11.95510518 -22.125 10.25 C-21.05507812 9.63640625 -19.98515625 9.0228125 -18.8828125 8.390625 C-16 7 -16 7 -13 7 C-13 6.34 -13 5.68 -13 5 C-12.01 4.67 -11.02 4.34 -10 4 C-9.67 3.34 -9.34 2.68 -9 2 C-8.01 2.33 -7.02 2.66 -6 3 C-2.84979639 2.11680706 -2.84979639 2.11680706 0 1 C0 0.67 0 0.34 0 0 Z " fill="#FEFEFE" transform="translate(263,407)"/>
<path d="M0 0 C2.31 0 4.62 0 7 0 C7 0.66 7 1.32 7 2 C9.97 2 12.94 2 16 2 C16.33 2.66 16.66 3.32 17 4 C18.31252882 4.70674629 19.65278717 5.36184656 21 6 C22.20993708 6.7265024 23.41816493 7.45585624 24.625 8.1875 C25.73875 8.785625 26.8525 9.38375 28 10 C28.66 9.67 29.32 9.34 30 9 C33 12.75 33 12.75 33 15 C33.763125 15.268125 34.52625 15.53625 35.3125 15.8125 C39.59925439 17.70664729 40.96428435 19.9285687 43 24 C43.70576172 24.68255859 43.70576172 24.68255859 44.42578125 25.37890625 C46.1269141 27.13069318 47.09637034 28.75942126 48.1875 30.9375 C48.53167969 31.60652344 48.87585938 32.27554688 49.23046875 32.96484375 C50 35 50 35 50 39 C50.66 39 51.32 39 52 39 C53.79389609 45.9128576 54.28694026 52.22341095 54.26069641 59.34790039 C54.26452196 60.45996636 54.26834751 61.57203234 54.27228898 62.71779728 C54.28257162 66.42779896 54.27863581 70.13764452 54.2746582 73.84765625 C54.27900724 76.51415516 54.28412689 79.1806428 54.29014587 81.84713745 C54.30286605 88.32802307 54.30468999 94.80886721 54.30234561 101.28976321 C54.30055961 106.55883161 54.30231813 111.82788745 54.30657005 117.09695435 C54.30716524 117.84803469 54.30776043 118.59911503 54.30837366 119.37295538 C54.30958545 120.898954 54.31079959 122.42495261 54.31201603 123.95095122 C54.32288083 138.24661581 54.32073386 152.54225678 54.31463119 166.83792269 C54.30946062 179.90661667 54.32072302 192.97523615 54.33972941 206.04391539 C54.359115 219.47670823 54.36736269 232.90946584 54.36360615 246.34227276 C54.36169551 253.87828207 54.36416856 261.41422795 54.37832069 268.95022583 C54.39024452 275.36428078 54.39162803 281.77823321 54.37953053 288.19228959 C54.37364937 291.46232448 54.37415458 294.73213364 54.38453293 298.00216293 C54.39498727 301.55231524 54.38690961 305.10196531 54.3742218 308.65209961 C54.38159609 309.6780829 54.38897037 310.70406618 54.39656812 311.76113987 C54.34939475 318.04424739 53.37443091 323.18347356 51 329 C50.58878906 330.02609375 50.17757813 331.0521875 49.75390625 332.109375 C47.58628827 336.91366928 45.52196707 341.02358557 42 345 C41.319375 346.093125 40.63875 347.18625 39.9375 348.3125 C39.298125 349.199375 38.65875 350.08625 38 351 C37.01 351 36.02 351 35 351 C35 351.66 35 352.32 35 353 C32.8828125 354.5078125 32.8828125 354.5078125 30.125 356.125 C29.22007812 356.66382813 28.31515625 357.20265625 27.3828125 357.7578125 C25 359 25 359 23 359 C23 359.66 23 360.32 23 361 C10.2913169 365.88795504 -2.55093778 365.81624367 -16 366 C-16.33 365.34 -16.66 364.68 -17 364 C-18.32 364 -19.64 364 -21 364 C-21.66 364 -22.32 364 -23 364 C-23.33 363.34 -23.66 362.68 -24 362 C-24.99 361.67 -25.98 361.34 -27 361 C-27 360.34 -27 359.68 -27 359 C-30.04913228 357.98888907 -30.04913228 357.98888907 -33 359 C-33.33 358.34 -33.66 357.68 -34 357 C-35.32 357 -36.64 357 -38 357 C-39.70779973 355.37550757 -41.37550757 353.70779973 -43 352 C-43.99 351.67 -44.98 351.34 -46 351 C-46.99 350.34 -47.98 349.68 -49 349 C-50.21714128 348.43182698 -51.44690856 347.88996248 -52.6875 347.375 C-53.780625 346.92125 -54.87375 346.4675 -56 346 C-56 345.34 -56 344.68 -56 344 C-56.58007812 343.81824219 -57.16015625 343.63648438 -57.7578125 343.44921875 C-62.39147293 341.9581894 -66.69762355 340.31666424 -71 338 C-71 337.34 -71 336.68 -71 336 C-71.61488281 335.80664062 -72.22976563 335.61328125 -72.86328125 335.4140625 C-74.07564453 335.02347656 -74.07564453 335.02347656 -75.3125 334.625 C-76.11300781 334.36976563 -76.91351562 334.11453125 -77.73828125 333.8515625 C-80 333 -80 333 -83 331 C-83 330.34 -83 329.68 -83 329 C-83.99 329.33 -84.98 329.66 -86 330 C-86 329.34 -86 328.68 -86 328 C-86.58007812 327.82984375 -87.16015625 327.6596875 -87.7578125 327.484375 C-92.81081637 325.91677644 -96.57892031 323.94738646 -101 321 C-102.99673484 320.64763503 -104.99650739 320.31165441 -107 320 C-108.75 318.5 -108.75 318.5 -110 317 C-110.66 316.67 -111.32 316.34 -112 316 C-112 315.34 -112 314.68 -112 314 C-116.39253773 312.43727811 -116.39253773 312.43727811 -121 312 C-121.66 311.67 -122.32 311.34 -123 311 C-123 310.34 -123 309.68 -123 309 C-123.7425 308.896875 -124.485 308.79375 -125.25 308.6875 C-128.28262774 307.92934306 -129.54487281 306.89395526 -132 305 C-134.63050849 303.59098004 -137.30806317 302.28716397 -140 301 C-140 300.34 -140 299.68 -140 299 C-141.258125 298.62875 -142.51625 298.2575 -143.8125 297.875 C-148.60557302 296.28231743 -152.82291616 294.03689876 -157.2109375 291.55859375 C-161.3978841 289.21882947 -165.69599154 287.114102 -170 285 C-172 284 -172 284 -174.1875 282.625 C-177.38163993 280.77949693 -180.59059067 279.40387443 -184 278 C-184 277.34 -184 276.68 -184 276 C-185.134375 275.71125 -186.26875 275.4225 -187.4375 275.125 C-188.613125 274.75375 -189.78875 274.3825 -191 274 C-191.33 273.34 -191.66 272.68 -192 272 C-194.52733235 271.34444881 -194.52733235 271.34444881 -197 271 C-197 270.34 -197 269.68 -197 269 C-199.97 268.34 -202.94 267.68 -206 267 C-206 266.34 -206 265.68 -206 265 C-206.763125 264.896875 -207.52625 264.79375 -208.3125 264.6875 C-211 264 -211 264 -212.28125 262.65625 C-214.63817023 260.38503596 -217.24883823 259.23443312 -220.1875 257.8125 C-221.27417969 257.28269531 -222.36085938 256.75289062 -223.48046875 256.20703125 C-224.72763672 255.60955078 -224.72763672 255.60955078 -226 255 C-226 254.34 -226 253.68 -226 253 C-226.804375 252.855625 -227.60875 252.71125 -228.4375 252.5625 C-231 252 -231 252 -232 251 C-232.2502071 248.70391202 -232.42646586 246.44081293 -232.55419922 244.13647461 C-232.59630964 243.38918815 -232.63842007 242.64190168 -232.68180656 241.87197018 C-233.26413318 230.19707411 -233.14358134 218.50224716 -233.1328125 206.81640625 C-233.13348731 204.22232555 -233.1344588 201.62824491 -233.13571167 199.03416443 C-233.13717638 193.63596933 -233.1351687 188.23779234 -233.13037109 182.83959961 C-233.1248902 176.60052068 -233.12672551 170.36147424 -233.1321975 164.12239605 C-233.1372733 158.09262425 -233.13674922 152.06286839 -233.13381577 146.03309441 C-233.1331478 143.47532077 -233.13397039 140.9175463 -233.13629532 138.35977364 C-233.13882102 134.80566281 -233.13498436 131.2516158 -233.12939453 127.69750977 C-233.13141876 126.63737167 -233.13344299 125.57723358 -233.13552856 124.48497009 C-233.13270874 123.52233246 -233.12988892 122.55969482 -233.12698364 121.56788635 C-233.12660662 120.72901162 -233.12622959 119.89013689 -233.12584114 119.02584171 C-233 117 -233 117 -232 115 C-230.21032199 114.07074411 -228.41495073 113.15136015 -226.59765625 112.27734375 C-223.42053791 110.7150615 -220.30606346 109.05101008 -217.1875 107.375 C-215.53814453 106.48941406 -215.53814453 106.48941406 -213.85546875 105.5859375 C-210.92762117 104.01019808 -210.92762117 104.01019808 -208 102 C-206.51414502 101.26245604 -205.01272801 100.55572761 -203.5 99.875 C-202.7265625 99.52179688 -201.953125 99.16859375 -201.15625 98.8046875 C-199 98 -199 98 -196 98 C-195.505 96.515 -195.505 96.515 -195 95 C-192.6015625 93.61328125 -192.6015625 93.61328125 -189.625 92.3125 C-188.64789062 91.87550781 -187.67078125 91.43851562 -186.6640625 90.98828125 C-184 90 -184 90 -181 90 C-181 89.34 -181 88.68 -181 88 C-180.40276123 87.68885254 -179.80552246 87.37770508 -179.19018555 87.05712891 C-176.35574787 85.58015354 -173.52158055 84.10266053 -170.6875 82.625 C-169.64746826 82.08278809 -168.60743652 81.54057617 -167.53588867 80.98193359 C-161.74750357 77.96209859 -155.96519833 74.93132403 -150.19238281 71.88183594 C-127.69352176 60 -127.69352176 60 -125 60 C-125 59.34 -125 58.68 -125 58 C-122.87717331 56.99539469 -120.75166979 55.99644398 -118.625 55 C-117.44164062 54.443125 -116.25828125 53.88625 -115.0390625 53.3125 C-112 52 -112 52 -110 52 C-110 51.34 -110 50.68 -110 50 C-108.21046815 49.16209211 -106.41830305 48.32980604 -104.625 47.5 C-103.12839844 46.80390625 -103.12839844 46.80390625 -101.6015625 46.09375 C-99 45 -99 45 -97 45 C-97 44.34 -97 43.68 -97 43 C-94.87717331 41.99539469 -92.75166979 40.99644398 -90.625 40 C-89.44164062 39.443125 -88.25828125 38.88625 -87.0390625 38.3125 C-84 37 -84 37 -82 37 C-82 36.34 -82 35.68 -82 35 C-80.23244474 34.15973604 -78.46082737 33.32801278 -76.6875 32.5 C-75.70136719 32.0359375 -74.71523438 31.571875 -73.69921875 31.09375 C-71 30 -71 30 -68 30 C-67.67 29.01 -67.34 28.02 -67 27 C-64.6015625 25.61328125 -64.6015625 25.61328125 -61.625 24.3125 C-60.64789062 23.87550781 -59.67078125 23.43851562 -58.6640625 22.98828125 C-56 22 -56 22 -53 22 C-53 21.34 -53 20.68 -53 20 C-52.15695312 19.59007812 -51.31390625 19.18015625 -50.4453125 18.7578125 C-49.34960938 18.21898437 -48.25390625 17.68015625 -47.125 17.125 C-45.48917969 16.32449219 -45.48917969 16.32449219 -43.8203125 15.5078125 C-40.96117453 14.15464063 -40.96117453 14.15464063 -39 12 C-36.76098009 10.94364189 -34.53225416 9.95251103 -32.25 9 C-31.03828125 8.484375 -29.8265625 7.96875 -28.578125 7.4375 C-25 6 -25 6 -21.609375 4.9375 C-18.85593495 4.28731629 -18.85593495 4.28731629 -18 2 C-12.06 1.67 -6.12 1.34 0 1 C0 0.67 0 0.34 0 0 Z " fill="#FEFEFE" transform="translate(911,407)"/>
<path d="M0 0 C0.98121323 -0.00571014 1.96242645 -0.01142029 2.97337341 -0.01730347 C4.03843613 -0.01842133 5.10349884 -0.01953918 6.20083618 -0.02069092 C7.89681694 -0.02813828 7.89681694 -0.02813828 9.62705994 -0.03573608 C13.36471161 -0.05033276 17.10232086 -0.05715499 20.83999634 -0.06268311 C23.43924969 -0.06843586 26.03850302 -0.07419358 28.63775635 -0.07995605 C33.39066997 -0.08911691 38.14356667 -0.09542061 42.89648759 -0.09845281 C49.88015516 -0.10293349 56.86362701 -0.12048788 63.84723508 -0.1494534 C69.90794172 -0.17371387 75.96855604 -0.18139894 82.02931595 -0.18312836 C84.60250541 -0.18615435 87.17569405 -0.19418105 89.74885178 -0.20731354 C93.34888279 -0.22437788 96.94843732 -0.22249268 100.54849243 -0.21600342 C102.14001381 -0.22982559 102.14001381 -0.22982559 103.76368713 -0.243927 C109.63195722 -0.21081032 113.79809938 0.37719232 119.00405884 3.14044189 C119.09753213 23.75052785 119.16805275 44.3605788 119.21130753 64.97083378 C119.23192599 74.54070691 119.26003293 84.11044827 119.30581665 93.68023682 C119.34570631 102.02201963 119.37149686 110.36370701 119.38041282 118.70558256 C119.38562396 123.12190182 119.3978571 127.53794807 119.42697906 131.95417976 C119.45418186 136.11317414 119.46249406 140.27178372 119.45648956 144.43085861 C119.45758763 145.95503139 119.46551274 147.47921737 119.48088074 149.00331306 C119.62210282 163.73461282 119.62210282 163.73461282 115.00405884 169.14044189 C112.03938581 170.19954887 109.24774678 170.26408225 106.11923218 170.26069641 C104.64692139 170.26275841 104.64692139 170.26275841 103.14486694 170.26486206 C102.07456238 170.26126678 101.00425781 170.25767151 99.90151978 170.25396729 C98.20352234 170.25418633 98.20352234 170.25418633 96.47122192 170.25440979 C92.72693978 170.25371273 88.9827073 170.24592994 85.23843384 170.23809814 C82.64340238 170.23623323 80.04837056 170.23480967 77.45333862 170.23381042 C71.31941688 170.23038147 65.18551566 170.22249873 59.05160165 170.21246094 C52.06736372 170.20127996 45.08312494 170.19578434 38.09888029 170.1907655 C23.73393023 170.18031559 9.36899517 170.16272851 -4.99594116 170.14044189 C-4.99594116 169.48044189 -4.99594116 168.82044189 -4.99594116 168.14044189 C-6.31594116 168.14044189 -7.63594116 168.14044189 -8.99594116 168.14044189 C-10.99594116 167.14044189 -10.99594116 167.14044189 -11.99594116 164.14044189 C-12.09189471 162.04859507 -12.12659496 159.95377009 -12.12965393 157.85972595 C-12.13391891 156.54325073 -12.1381839 155.22677551 -12.14257812 153.8704071 C-12.1422286 152.40792844 -12.14176706 150.94544979 -12.14120483 149.48297119 C-12.14419644 147.9454846 -12.14759898 146.40799876 -12.15138245 144.87051392 C-12.16022742 140.69066593 -12.1625608 136.51083841 -12.16319823 132.33098197 C-12.16414729 128.84199393 -12.16782564 125.35301066 -12.17137033 121.86402446 C-12.17951712 113.63137274 -12.18195439 105.39873195 -12.1812439 97.16607666 C-12.18064334 88.67451832 -12.19119029 80.18302355 -12.20698756 71.69148129 C-12.22006634 64.40136309 -12.22542764 57.11126566 -12.22478849 49.82113582 C-12.22453356 45.46702994 -12.22738184 41.11298053 -12.23796654 36.75888634 C-12.24765295 32.66230023 -12.24772297 28.56582448 -12.24044991 24.46923447 C-12.23940467 22.96723456 -12.24176332 21.46522777 -12.24781036 19.96323967 C-12.25554228 17.90940004 -12.2508778 15.85594038 -12.24317932 13.80210876 C-12.24372409 12.65376399 -12.24426886 11.50541922 -12.24483013 10.32227612 C-11.9832444 6.97812455 -11.18662849 4.26503871 -9.99594116 1.14044189 C-6.60690428 0.37949207 -3.4708675 0.01215957 0 0 Z M-10.99594116 162.14044189 C-9.99594116 164.14044189 -9.99594116 164.14044189 -9.99594116 164.14044189 Z " fill="#FEFEFE" transform="translate(536.9959411621094,505.85955810546875)"/>
<path d="M0 0 C3.63 0 7.26 0 11 0 C11 0.33 11 0.66 11 1 C7.37 1 3.74 1 0 1 C0 0.67 0 0.34 0 0 Z " fill="#FFFFFF" transform="translate(566,676)"/>
<path d="" fill="#FFFFFF" transform="translate(0,0)"/>
<path d="M0 0 C3 1 3 1 3 1 Z " fill="#FFFFFF" transform="translate(902,407)"/>
<path d="M0 0 C2 1 2 1 2 1 Z " fill="#FFFFFF" transform="translate(276,773)"/>
<path d="M0 0 C2 1 2 1 2 1 Z " fill="#FFFFFF" transform="translate(921,772)"/>
<path d="M0 0 C2 1 2 1 2 1 Z " fill="#FFFFFF" transform="translate(328,751)"/>
<path d="M0 0 C2 1 2 1 2 1 Z " fill="#FFFFFF" transform="translate(695,668)"/>
<path d="M0 0 C2 1 2 1 2 1 Z " fill="#FFFFFF" transform="translate(326,428)"/>
<path d="" fill="#FFFFFF" transform="translate(0,0)"/>
<path d="" fill="#FFFFFF" transform="translate(0,0)"/>
<path d="" fill="#FFFFFF" transform="translate(0,0)"/>
<path d="" fill="#FFFFFF" transform="translate(0,0)"/>
<path d="" fill="#FFFFFF" transform="translate(0,0)"/>
<path d="" fill="#FFFFFF" transform="translate(0,0)"/>
<path d="" fill="#FFFFFF" transform="translate(0,0)"/>
<path d="" fill="#FFFFFF" transform="translate(0,0)"/>
<path d="" fill="#FFFFFF" transform="translate(0,0)"/>
<path d="" fill="#FFFFFF" transform="translate(0,0)"/>
<path d="" fill="#FFFFFF" transform="translate(0,0)"/>
<path d="" fill="#FFFFFF" transform="translate(0,0)"/>
<path d="" fill="#FFFFFF" transform="translate(0,0)"/>
<path d="" fill="#FFFFFF" transform="translate(0,0)"/>
<path d="" fill="#FFFFFF" transform="translate(0,0)"/>
<path d="" fill="#FFFFFF" transform="translate(0,0)"/>
<path d="" fill="#FFFFFF" transform="translate(0,0)"/>
<path d="" fill="#FFFFFF" transform="translate(0,0)"/>
<path d="" fill="#FFFFFF" transform="translate(0,0)"/>
<path d="" fill="#FFFFFF" transform="translate(0,0)"/>
<path d="" fill="#FFFFFF" transform="translate(0,0)"/>
<path d="" fill="#FFFFFF" transform="translate(0,0)"/>
<path d="" fill="#FFFFFF" transform="translate(0,0)"/>
<path d="" fill="#FFFFFF" transform="translate(0,0)"/>
<path d="" fill="#FFFFFF" transform="translate(0,0)"/>
<path d="" fill="#FFFFFF" transform="translate(0,0)"/>
<path d="" fill="#FFFFFF" transform="translate(0,0)"/>
<path d="" fill="#FFFFFF" transform="translate(0,0)"/>
<path d="" fill="#FFFFFF" transform="translate(0,0)"/>
<path d="" fill="#FFFFFF" transform="translate(0,0)"/>
<path d="" fill="#FFFFFF" transform="translate(0,0)"/>
<path d="" fill="#FFFFFF" transform="translate(0,0)"/>
<path d="" fill="#FFFFFF" transform="translate(0,0)"/>
<path d="" fill="#FFFFFF" transform="translate(0,0)"/>
<path d="" fill="#FFFFFF" transform="translate(0,0)"/>
<path d="" fill="#FFFFFF" transform="translate(0,0)"/>
<path d="" fill="#FFFFFF" transform="translate(0,0)"/>
<path d="" fill="#FFFFFF" transform="translate(0,0)"/>
</svg>
